<svg width="730" height="730" viewBox="0 0 730 730" fill="none" xmlns="http://www.w3.org/2000/svg">
<g clip-path="url(#clip0_58875_95)">
<rect width="778" height="751" rx="77" fill="#FF8735"/>
<path d="M411.564 118.614C411.565 118.614 411.565 118.615 411.566 118.615C411.566 118.615 411.566 118.615 411.566 118.616L800.255 767.395C806.941 778.555 799.197 792.795 786.196 793.249L677.709 797.041C671.361 797.263 665.414 793.945 662.269 788.427L618.705 711.987C616.531 708.172 612.97 705.34 608.763 704.08L248.019 596.057C240.022 593.662 231.465 597.398 227.785 604.89L227.399 605.675L185.571 693.79C184.483 696.081 182.899 698.102 180.933 699.704L77.5139 784.033C76.012 785.257 74.3127 786.217 72.4887 786.872L14.9091 807.538C0.209478 812.813 -13.2784 797.227 -5.94674 783.438L258.046 286.901C264.615 274.546 254.359 259.966 240.511 261.973L44.8844 290.332C32.6997 292.098 22.7037 280.786 25.9562 268.911L52.9211 170.461C54.7652 163.729 60.5201 158.795 67.4556 158.001L343.306 126.426C343.346 126.422 343.381 126.398 343.4 126.363C343.432 126.303 343.506 126.281 343.565 126.312L343.64 126.352C343.677 126.372 343.719 126.38 343.76 126.375L411.564 118.614ZM302.479 452.855C298.177 461.611 302.069 472.186 311.021 476.064L494.049 555.354C509.111 561.878 523.811 545.479 515.683 531.218L396.47 322.039C389.683 310.129 372.339 310.661 366.294 322.965L302.479 452.855Z" fill="white"/>
<path d="M521.383 92.0003C518.078 89.6116 517.451 84.9406 520.009 81.7648L553.292 40.4383C555.758 37.376 560.24 36.8928 563.302 39.3591L693.253 144.017C696.315 146.483 696.799 150.965 694.332 154.027L661.174 195.199C658.57 198.432 653.764 198.761 650.744 195.912L603.538 151.382L521.383 92.0003Z" fill="white"/>
<path d="M625.692 35.6113C628.133 32.5285 632.61 32.0077 635.693 34.4482L678.726 68.5141C682.223 71.2826 682.342 76.5482 678.974 79.4722L619.55 131.061C618.888 131.636 618.338 132.328 617.928 133.102L580.094 204.447C578.01 208.377 572.873 209.454 569.385 206.693L526.324 172.605C523.241 170.164 522.72 165.687 525.161 162.604L625.692 35.6113Z" fill="white"/>
</g>
<defs>
<clipPath id="clip0_58875_95">
<rect width="730" height="730" rx="74" fill="white"/>
</clipPath>
</defs>
</svg>
